<svg width="18" height="17" viewBox="0 0 18 17" fill="none" xmlns="http://www.w3.org/2000/svg">
<path d="M4.21094 17H0.759766V5.9043H4.21094V17ZM2.4668 4.41992C1.39062 4.41992 0.5 3.49219 0.5 2.37891C0.5 1.30273 1.39062 0.412109 2.4668 0.412109C3.58008 0.412109 4.4707 1.30273 4.4707 2.37891C4.4707 3.49219 3.58008 4.41992 2.4668 4.41992ZM17.0879 17H13.6738V11.6191C13.6738 10.3203 13.6367 8.6875 11.8555 8.6875C10.0742 8.6875 9.81445 10.0605 9.81445 11.5078V17H6.36328V5.9043H9.66602V7.42578H9.70312C10.1855 6.57227 11.2988 5.64453 12.9688 5.64453C16.457 5.64453 17.125 7.94531 17.125 10.9141V17H17.0879Z" fill="white"/>
</svg>
