<svg width="32" height="32" viewBox="0 0 32 32" fill="none" xmlns="http://www.w3.org/2000/svg">
<rect width="32" height="32" fill="#8684E4"/>
<path d="M21.1208 11.2615C21.278 11.8861 21.2329 12.4328 20.9855 12.9016C20.7273 13.354 20.3478 13.7457 19.8468 14.0765C19.459 14.3326 19.0226 14.5503 18.5376 14.7295C18.0526 14.9088 17.5676 15.0529 17.0825 15.1617C16.5867 15.2542 16.1015 15.3278 15.6272 15.3826C15.169 15.4267 14.7647 15.447 14.4142 15.4434C14.3441 15.4427 14.2849 15.4584 14.2364 15.4904C14.1879 15.5224 14.1583 15.5655 14.1476 15.6195C14.1369 15.6736 14.1477 15.7252 14.1801 15.7742C14.2018 15.807 14.2503 15.8454 14.3259 15.8895C14.7736 16.1107 15.2458 16.4568 15.7425 16.9277C16.2283 17.3823 16.6089 17.8006 16.8844 18.1826C17.149 18.5483 17.3354 18.8129 17.4434 18.9765C17.7568 19.451 18.0702 19.9959 18.3837 20.6113C18.6972 21.2266 18.9461 21.8846 19.1303 22.5853C19.3199 23.259 19.4097 23.9046 19.3998 24.5221C19.379 25.1232 19.2206 25.639 18.9247 26.0694C18.801 26.2685 18.6691 26.4379 18.5291 26.5773C18.3783 26.7004 18.2302 26.8099 18.0848 26.9059C17.6969 27.1621 17.2982 27.2962 16.8884 27.3082C16.4679 27.304 16.0554 27.224 15.6508 27.0682C15.2516 26.8853 14.8712 26.6431 14.5096 26.3415C14.1372 26.0235 13.8132 25.6735 13.5378 25.2915C13.246 24.8497 12.8894 24.2394 12.4678 23.4604C12.0624 22.6708 11.6381 21.7997 11.1947 20.8472C10.7406 19.8783 10.3079 18.8716 9.89679 17.8273C9.47486 16.7667 9.12039 15.7554 8.83337 14.7937C8.53555 13.8155 8.3322 12.9277 8.22331 12.1302C8.13058 11.3221 8.17286 10.6833 8.35015 10.2138C8.46835 9.90075 8.64582 9.57209 8.88258 9.22778C9.12469 8.85643 9.40458 8.50714 9.72223 8.1799C10.0399 7.85266 10.3333 7.57664 10.6026 7.35184C10.888 7.11637 11.1358 6.92927 11.3459 6.79055C11.5075 6.68384 11.6664 6.59065 11.8226 6.51097C12.1081 6.34593 12.5041 6.15492 13.0106 5.93794C13.5171 5.72096 14.0506 5.54489 14.6111 5.40972C15.1609 5.25819 15.6864 5.19309 16.1878 5.21443C16.6946 5.20873 17.0938 5.35634 17.3853 5.65726C17.4932 5.75045 17.585 5.85431 17.6607 5.96884C17.7795 6.14882 17.858 6.39069 17.8962 6.69445C17.9505 6.98754 17.9266 7.28525 17.8246 7.58759C17.7656 7.81452 17.6068 8.04857 17.3484 8.28973C17.0791 8.51453 16.7667 8.74431 16.4112 8.97907C15.8618 9.34189 15.288 9.68549 14.69 10.0099C14.0974 10.3073 13.6637 10.5466 13.389 10.728C13.2112 10.8454 13.1602 10.9614 13.2358 11.0759C13.2682 11.125 13.3168 11.1634 13.3815 11.1912C13.4463 11.2189 13.5325 11.2089 13.6403 11.1613C13.9204 11.0233 14.276 10.8237 14.707 10.5626C15.1271 10.2852 15.5796 10.0216 16.0645 9.77192C16.5494 9.52222 17.0532 9.31875 17.576 9.16153C18.0879 8.98795 18.5703 8.92783 19.0233 8.98118C19.4762 9.03453 19.8268 9.17894 20.0752 9.41441C20.3396 9.6392 20.5205 9.82523 20.6177 9.97248C20.8338 10.2997 21.0015 10.7294 21.1208 11.2615Z" fill="#DBF38C"/>
</svg>
